<svg width="87" height="86" viewBox="0 0 87 86" fill="none" xmlns="http://www.w3.org/2000/svg">
<path d="M43.5 85.6123C66.791 85.6123 86.083 66.3203 86.083 42.9854C86.083 19.6943 66.7471 0.402344 43.4561 0.402344C20.165 0.402344 0.873047 19.6943 0.873047 42.9854C0.873047 66.3203 20.209 85.6123 43.5 85.6123ZM43.4561 49.0938C41.1709 49.0938 39.8965 47.8193 39.8086 45.4902L39.2373 25.4512C39.1494 23.1221 40.9512 21.4082 43.4121 21.4082C45.8291 21.4082 47.7188 23.1221 47.6309 25.4951L47.0156 45.4902C46.9277 47.8633 45.6533 49.0938 43.4561 49.0938ZM43.4561 64.5186C40.9512 64.5186 38.666 62.585 38.666 59.9482C38.666 57.3115 40.9072 55.3779 43.4561 55.3779C46.0049 55.3779 48.2461 57.2676 48.2461 59.9482C48.2461 62.6289 45.9609 64.5186 43.4561 64.5186Z" fill="#EEBF4D"/>
</svg>
