<svg width="50" height="49" viewBox="0 0 50 49" fill="none" xmlns="http://www.w3.org/2000/svg">
<g filter="url(#filter0_d)">
<path d="M17.9326 30.8188H32.1172C34.0825 30.8188 35.1201 29.7568 35.1201 27.8281V13.6313C35.1201 11.6904 34.0825 10.6284 32.1172 10.6284H17.9326C15.9673 10.6284 14.9297 11.666 14.9297 13.6313V27.8281C14.9297 29.7812 15.9673 30.8188 17.9326 30.8188ZM17.957 30.1597C16.4067 30.1597 15.5889 29.354 15.5889 27.7915V13.668C15.5889 12.1055 16.4067 11.2876 17.957 11.2876H32.0928C33.5942 11.2876 34.4609 12.1055 34.4609 13.668V27.7915C34.4609 29.354 33.5942 30.1597 32.0928 30.1597H17.957ZM20.8745 25.2402C20.9966 25.2402 21.0576 25.2036 21.1675 25.0938L25.0371 21.2363L28.9067 25.0938C29.0044 25.2036 29.0898 25.2402 29.1997 25.2402C29.4072 25.2402 29.5781 25.0938 29.5781 24.8984C29.5781 24.7764 29.5415 24.7031 29.4438 24.6055L25.5498 20.7114L29.4438 16.8174C29.5415 16.7197 29.5781 16.6465 29.5781 16.5366C29.5781 16.3413 29.4072 16.1826 29.1997 16.1826C29.0898 16.1826 29.0166 16.2192 28.9067 16.3291L25.0371 20.1987L21.1675 16.3291C21.0576 16.2192 20.9966 16.1948 20.8745 16.1948C20.6548 16.1948 20.4961 16.3413 20.4961 16.5366C20.4961 16.6465 20.5327 16.7319 20.6182 16.8174L24.5122 20.7114L20.6182 24.6055C20.5327 24.7031 20.4961 24.7764 20.4961 24.8984C20.4961 25.0938 20.6548 25.2402 20.8745 25.2402Z" fill="#172B4D"/>
</g>
<defs>
<filter id="filter0_d" x="0.929688" y="0.628418" width="48.1904" height="48.1904" filterUnits="userSpaceOnUse" color-interpolation-filters="sRGB">
<feFlood flood-opacity="0" result="BackgroundImageFix"/>
<feColorMatrix in="SourceAlpha" type="matrix" values="0 0 0 0 0 0 0 0 0 0 0 0 0 0 0 0 0 0 127 0"/>
<feOffset dy="4"/>
<feGaussianBlur stdDeviation="7"/>
<feColorMatrix type="matrix" values="0 0 0 0 0 0 0 0 0 0 0 0 0 0 0 0 0 0 0.08 0"/>
<feBlend mode="normal" in2="BackgroundImageFix" result="effect1_dropShadow"/>
<feBlend mode="normal" in="SourceGraphic" in2="effect1_dropShadow" result="shape"/>
</filter>
</defs>
</svg>
